<?xml version="1.0" standalone="no"?>
<!DOCTYPE svg PUBLIC "-//W3C//DTD SVG 20010904//EN"
 "http://www.w3.org/TR/2001/REC-SVG-20010904/DTD/svg10.dtd">
<svg version="1.0" xmlns="http://www.w3.org/2000/svg"
 width="1920.000000pt" height="1920.000000pt" viewBox="0 0 1920.000000 1920.000000"
 preserveAspectRatio="xMidYMid meet">
<metadata>
Created by potrace 1.14, written by Peter Selinger 2001-2017
</metadata>
<g transform="translate(0.000000,1920.000000) scale(0.100000,-0.100000)"
fill="#000000" stroke="none">
<path d="M0 9600 l0 -9600 9600 0 9600 0 0 9600 0 9600 -9600 0 -9600 0 0
-9600z m15890 0 l0 -1210 -6290 0 -6290 0 0 1210 0 1210 6290 0 6290 0 0
-1210z"/>
<path d="M10966 10431 c-49 -50 -94 -87 -99 -84 -5 3 -8 28 -7 57 2 28 2 57 1
64 -1 10 -46 12 -208 10 l-208 -3 0 -735 0 -735 217 -3 218 -2 6 25 c4 14 4
66 2 115 -3 67 -1 90 8 90 7 0 38 -35 71 -77 32 -43 83 -107 113 -143 31 -36
67 -81 80 -100 13 -19 36 -47 50 -62 15 -16 47 -54 71 -85 97 -129 162 -204
173 -201 20 5 286 300 286 317 0 5 -6 14 -13 18 -12 7 -46 50 -102 129 -11 15
-45 58 -75 95 -30 36 -69 86 -87 110 -18 24 -53 70 -79 101 l-47 58 59 77 c33
43 70 96 83 118 13 22 34 51 47 65 12 14 41 52 63 84 45 67 46 62 -26 150 -26
32 -61 77 -78 101 -16 23 -58 76 -93 118 -35 41 -76 93 -90 115 -48 71 -104
142 -111 142 -4 0 -18 19 -31 42 -24 43 -87 118 -99 118 -3 0 -47 -40 -95 -89z
m74 -459 c0 -5 10 -19 23 -32 33 -35 97 -122 97 -132 0 -5 15 -25 33 -44 17
-20 32 -41 32 -47 0 -14 -433 -23 -447 -9 -4 4 28 44 72 87 44 44 99 104 121
133 37 46 69 67 69 44z"/>
<path d="M4475 10458 c-40 -58 -149 -218 -175 -258 -37 -58 -78 -113 -113
-153 l-27 -32 -18 23 c-43 58 -153 165 -160 156 -10 -10 -82 -118 -97 -143 -5
-9 -24 -35 -41 -56 -17 -22 -38 -54 -47 -71 -9 -17 -23 -36 -31 -43 -9 -8 -16
-20 -16 -27 0 -8 38 -53 84 -101 l84 -87 -32 -45 c-17 -24 -38 -54 -46 -66
-31 -47 -100 -145 -139 -196 -23 -30 -41 -59 -41 -65 0 -7 17 -29 38 -50 21
-22 63 -68 93 -104 30 -36 74 -85 97 -110 23 -25 42 -48 42 -52 0 -5 7 -8 15
-8 8 0 15 4 15 10 0 5 36 57 80 115 44 58 80 110 80 114 0 5 18 32 41 60 l41
51 29 -31 c15 -17 44 -52 64 -79 20 -27 39 -50 43 -52 5 -2 34 -34 66 -73 32
-38 65 -76 74 -82 19 -16 487 -19 497 -3 4 6 8 1159 5 1473 0 4 -110 7 -245 7
-242 0 -244 0 -260 -22z m165 -748 c0 -203 -3 -370 -7 -370 -5 0 -28 25 -53
56 -25 31 -64 76 -87 100 -24 24 -43 49 -43 55 0 6 -22 36 -50 66 -27 30 -50
59 -50 65 0 5 19 35 43 66 23 31 51 71 61 87 24 38 178 245 183 245 1 0 3
-166 3 -370z"/>
<path d="M5048 9903 l-3 -577 35 -49 c32 -45 130 -170 162 -207 7 -8 19 -28
25 -43 l13 -27 415 0 415 0 0 205 c0 157 -3 205 -12 205 -7 0 -152 1 -323 3
l-310 2 -3 332 -2 333 316 2 316 3 -1 190 c0 105 -1 193 -1 198 0 4 -234 7
-520 7 l-520 0 -2 -577z"/>
<path d="M6167 10473 c-4 -3 -7 -263 -7 -577 l0 -571 83 -111 c45 -61 102
-134 125 -162 l44 -52 409 0 409 0 -2 206 -3 205 -310 0 c-170 -1 -316 3 -323
7 -9 7 -12 80 -10 333 l3 324 312 3 313 2 5 23 c3 12 4 101 3 197 l-3 175
-521 3 c-286 1 -524 -1 -527 -5z"/>
<path d="M7280 9899 l0 -581 92 -121 c50 -67 105 -139 122 -159 l31 -38 303 0
302 0 0 205 0 205 -204 0 c-163 0 -206 3 -215 14 -7 9 -11 41 -9 83 l3 68 195
3 c107 1 198 6 203 11 6 6 11 237 7 371 0 6 -73 10 -200 10 l-200 0 -6 24 c-3
13 -4 37 -2 52 l3 29 205 5 205 5 0 195 0 195 -417 3 -418 2 0 -581z"/>
<path d="M8175 10468 c-3 -7 -4 -339 -3 -738 l3 -725 655 -3 655 -2 -92 87
c-110 106 -208 198 -286 270 l-58 53 -234 0 -235 0 -2 533 -3 532 -198 3
c-152 2 -199 0 -202 -10z"/>
<path d="M9550 9896 l0 -583 68 -86 c37 -47 78 -102 92 -122 14 -20 38 -52 54
-71 l28 -34 304 0 304 0 0 205 c0 157 -3 205 -12 205 -7 0 -103 2 -213 3
l-200 2 -3 83 -3 82 200 0 c200 0 201 0 206 23 3 12 4 99 3 192 l-3 170 -202
3 -203 2 0 55 0 55 205 0 205 0 0 200 0 200 -415 0 -415 0 0 -584z"/>
<path d="M12514 10424 c-21 -31 -47 -71 -56 -88 -10 -17 -42 -65 -72 -106 -30
-41 -74 -105 -98 -142 -23 -38 -48 -68 -54 -68 -10 0 -73 66 -138 145 -27 33
-56 46 -56 26 0 -4 -12 -24 -27 -44 -16 -20 -41 -58 -58 -84 -28 -46 -48 -74
-115 -162 -16 -22 -30 -44 -30 -50 0 -6 38 -47 85 -93 47 -45 85 -86 85 -91 0
-5 -20 -36 -45 -68 -25 -33 -45 -61 -45 -64 0 -3 -20 -31 -45 -64 -25 -32 -45
-62 -45 -65 0 -3 -16 -28 -35 -55 -19 -26 -35 -52 -35 -56 0 -11 55 -79 163
-198 53 -60 97 -113 97 -118 0 -36 94 65 141 152 32 59 125 179 139 179 9 0
23 -12 33 -27 9 -16 46 -59 81 -98 36 -38 66 -73 66 -77 0 -5 23 -33 52 -63
l51 -55 233 0 c128 0 239 3 248 6 14 6 16 80 16 745 l0 739 -249 0 -248 0 -39
-56z m186 -719 c0 -211 -4 -365 -9 -365 -5 0 -25 21 -43 48 -19 26 -80 102
-136 169 l-102 122 45 68 c25 37 60 87 77 109 76 97 100 130 106 144 5 14 52
70 59 70 2 0 3 -164 3 -365z"/>
<path d="M13110 10270 l0 -210 190 0 190 0 0 -530 0 -530 23 -5 c12 -3 112 -4
222 -3 l200 3 3 533 2 532 164 0 164 0 49 58 c27 31 66 82 86 112 63 93 70
103 119 165 27 33 48 65 48 72 0 10 -148 13 -730 13 l-730 0 0 -210z"/>
<path d="M14660 9897 l0 -584 43 -56 c23 -31 65 -86 92 -123 28 -37 64 -83 81
-101 l31 -33 302 0 301 0 0 205 0 205 -215 0 -216 0 3 86 3 85 200 2 200 2 3
193 2 192 -205 0 -205 0 0 55 0 55 208 2 207 3 0 195 0 195 -417 3 -418 2 0
-583z"/>
</g>
</svg>
